<?xml version="1.0" encoding="UTF-8"?>
<svg viewBox="0 0 120 142" version="1.1" xmlns="http://www.w3.org/2000/svg" xmlns:xlink="http://www.w3.org/1999/xlink">
    <g id="Page-1" stroke="none" stroke-width="1" fill="none" fill-rule="evenodd">
        <g id="Artboard" transform="translate(-36.000000, -36.000000)" fill="#343534">
            <g id="Group-3" transform="translate(36.000000, 36.000000)">
                <path d="M3.45159332,135.370089 L5.10542298,135.144847 L5.12517863,135.108246 C5.42715777,134.497278 5.86460418,133.641361 6.23713919,133.024762 C6.88343099,131.957681 8.01232496,130.454195 8.0236139,130.440117 L8.06876966,130.383807 L6.77054159,129.409638 L6.72538583,129.468764 C6.67740784,129.533521 5.53440269,131.059531 4.85142184,132.188554 C4.76393256,132.332145 4.67079881,132.49263 4.57202058,132.667192 C4.52404259,132.219524 4.49864248,131.760595 4.49864248,131.29885 L4.49864248,123.223946 L2.87585739,123.223946 L2.87585739,131.29885 C2.87585739,132.937481 3.17783653,134.486016 3.43465991,135.310963 L3.45159332,135.370089 Z M7.56076737,141.614907 C9.86935554,141.614907 11.7602529,140.874426 13.1826593,139.413172 C14.3510646,138.213762 15.161046,136.577946 15.5956702,134.550773 C15.9315162,132.988161 15.9117605,131.735255 15.9089383,131.600111 L15.9089383,123.223946 L14.2861532,123.223946 L14.2861532,131.611373 L14.2861532,131.631081 C14.2861532,131.67613 14.3736425,135.874066 12.0142541,138.28978 C10.9107602,139.421619 9.41215348,139.995984 7.56076737,139.995984 L7.48738926,139.995984 L7.48738926,141.614907 L7.56076737,141.614907 Z M9.75928838,111.821099 L9.7931552,111.818284 C9.79879967,111.818284 9.89193342,111.812652 10.0612675,111.812652 C10.4592026,111.812652 11.2691841,111.849254 12.2372106,112.094204 C12.2513218,112.09702 12.265433,112.102651 12.2795442,112.105466 L12.2795442,113.397789 L12.2767219,113.409051 L12.2795442,113.431575 C12.2795442,113.482254 12.2682552,114.186134 11.7630752,114.698558 C11.3369177,115.132148 10.6539369,115.351758 9.73106603,115.351758 L9.71131039,115.351758 C9.33313091,115.351758 8.23245928,115.227875 7.66519006,114.664772 C7.39425551,114.397298 7.2644327,114.053805 7.2644327,113.608953 C7.2644327,113.152839 7.3773221,112.502454 8.36228209,112.099835 C9.01421836,111.835177 9.70566592,111.821099 9.73106603,111.821099 L9.75928838,111.821099 Z M9.73388827,116.970681 C11.1224279,116.970681 12.2033438,116.576508 12.9455916,115.807872 C13.8882181,114.825256 13.9079737,113.620215 13.9023293,113.389342 L13.9023293,112.696725 C14.9860675,113.220411 15.9286939,113.963708 16.6991641,114.912537 L16.7471421,114.968848 L18.0058588,113.94963 L17.9607031,113.890505 C16.8938983,112.584104 15.4912475,111.562071 13.9023293,110.934211 L13.9023293,105.010362 L12.2795442,105.010362 L12.2795442,110.441495 C11.3425622,110.235963 10.5636253,110.19373 10.066912,110.19373 C9.88064448,110.19373 9.75364391,110.199361 9.69719921,110.202176 C9.53350959,110.204992 8.66426123,110.238778 7.79219064,110.582271 C6.40647329,111.134113 5.64164762,112.206825 5.64164762,113.608953 C5.64164762,114.498656 5.94080452,115.241953 6.52782939,115.819134 C7.66236783,116.936895 9.51375394,116.970681 9.72259933,116.970681 L9.73388827,116.970681 Z M17.6333238,105.387641 L18.4376608,103.982698 L12.8016576,100.781454 L12.0001429,102.189213 L17.6333238,105.387641 Z M2.05458703,113.423129 L5.60495857,103.712408 L10.0302229,103.712408 L10.0302229,102.093486 L6.1976279,102.093486 L7.27854388,99.1343765 L5.75453702,98.5797195 L4.47042013,102.093486 L0.666047443,102.093486 L0.666047443,103.712408 L3.87775079,103.712408 L0.530580166,112.871287 L2.05458703,113.423129 Z M17.0716991,92.3039307 L17.1450772,92.2954841 L16.9221206,90.6934546 L16.8515648,90.7019011 C15.161046,90.9355891 13.0415476,91.0622874 10.8768934,91.0622874 C8.62474994,91.0622874 6.88625322,90.7863667 5.70938126,90.2401562 C4.58330952,89.7136544 4.05555159,88.998513 4.05555159,87.9821111 C4.05555159,87.1064851 4.60024293,86.2111505 5.66986997,85.3186314 C6.62378538,84.5218399 7.9671692,83.7503881 9.66615463,83.0183535 C12.6238568,81.7457395 15.6267148,81.0531221 15.6577594,81.0474911 L15.7283153,81.030598 L15.3670692,79.4539081 L15.2965133,79.4708012 C15.1666905,79.4961409 12.132788,80.1972048 9.03961847,81.5261291 C8.76586169,81.6415653 8.49492713,81.7654481 8.22963705,81.8865154 L6.89471993,74.3127729 L5.29451272,74.5943247 L6.71974136,82.6607827 C3.87492856,84.2656278 2.43558874,86.0534815 2.43558874,87.9821111 C2.43558874,89.1308423 2.8843241,90.7131632 5.02640041,91.7042254 C6.41776223,92.35461 8.38768221,92.6812101 10.8768934,92.6812101 C13.1121035,92.6812101 15.3134467,92.5460652 17.0716991,92.3039307 Z M3.39797085,61.0319761 C3.26532581,61.417702 3.1185696,61.8006124 2.96052444,62.1807073 C2.22674336,63.9066197 1.23331666,65.4917561 0,66.8995149 L1.11196056,67.8652375 C2.44969992,66.3392269 3.52497142,64.6245767 4.31801944,62.7522574 C4.49299801,62.3440074 4.65104316,61.9273107 4.79497714,61.5106141 L3.39797085,61.0319761 Z M4.79497714,57.3689877 C3.57012718,56.4060806 2.26907688,55.5501633 0.903115177,54.8068666 L0.19473421,56.0991892 C1.49014004,56.8058841 2.72345671,57.6167532 3.88339526,58.5261654 L4.79497714,57.3689877 Z M5.16186768,52.1180472 C4.03861818,51.2058195 2.85045728,50.3836884 1.6002072,49.6572848 L0.857959418,50.9298988 C2.04047585,51.6168851 3.16654759,52.3967835 4.23335239,53.2611474 L5.16186768,52.1180472 Z M18.440483,59.9564484 L18.440483,58.4839327 L5.15904545,58.4839327 L5.15904545,59.9564484 L7.89943556,59.9564484 C7.34909975,60.7138226 6.73667477,61.4317796 6.06216063,62.1075039 C5.5993141,62.5692488 5.11388969,63.000023 4.61153187,63.4054575 L5.53158046,64.5541887 C6.07909403,64.114968 6.60402973,63.6447765 7.10638755,63.1464299 C7.18823236,63.0619644 7.27007717,62.9831299 7.34909975,62.8986643 L9.33313091,62.8986643 C8.9605959,63.3435161 8.56548301,63.7714748 8.15061447,64.1853559 C7.15436554,65.1764181 6.0762718,66.0576751 4.91915548,66.8178649 L5.7291369,68.0482461 C6.97092027,67.231746 8.12521436,66.2885476 9.19201916,65.2270974 C9.92580024,64.4922473 10.6031366,63.71798 11.2212061,62.8986643 L13.0387254,62.8986643 C12.2146328,64.1008904 11.2776508,65.2242819 10.2334238,66.2660234 C9.99635611,66.5053424 9.75082168,66.7362149 9.50528724,66.9642718 L10.5015362,68.0482461 C10.764004,67.8061116 11.0236496,67.5611616 11.2776508,67.307765 C12.6238568,65.9647631 13.8007288,64.4866163 14.7998,62.8986643 L16.9616319,62.8986643 L16.9616319,62.9042954 C16.9644542,63.8672024 16.7217419,65.6522406 16.0528723,66.3223338 C15.8778937,66.4968959 15.6944484,66.5757304 15.4630252,66.5757304 L13.6426836,66.5757304 L13.6426836,68.0482461 L15.4630252,68.0482461 C16.0839169,68.0482461 16.6483638,67.8089271 17.0999214,67.3584443 C18.4122607,66.0435975 18.4376608,63.2252644 18.4376608,62.8986643 L18.4376608,61.4261486 L8.63321664,61.4261486 C9.00857389,60.9531416 9.35853102,60.4632416 9.68308804,59.9564484 L18.440483,59.9564484 Z M8.11392542,55.5417167 L15.4884253,55.5417167 L15.4884253,54.0720165 L8.11392542,54.0720165 L8.11392542,55.5417167 Z M8.11392542,52.6023163 L15.4884253,52.6023163 L15.4884253,51.1298006 L8.11392542,51.1298006 L8.11392542,52.6023163 Z M6.63789655,57.0142324 L16.9616319,57.0142324 L16.9616319,49.6572848 L6.63789655,49.6572848 L6.63789655,57.0142324 Z M8.48363819,16.186411 C8.48363819,16.58903 8.15061447,16.9212611 7.74421264,16.9212611 L5.53158046,16.9212611 L5.53158046,18.3909613 L7.74421264,18.3909613 C8.96624037,18.3909613 9.95684483,17.4027146 9.95684483,16.186411 L9.95684483,0 L8.48363819,0 L8.48363819,16.186411 Z M16.7330309,9.18984961 C16.0331166,7.53432524 15.2174907,5.93792673 14.2946199,4.41473168 L13.0302587,5.17492144 C13.9164404,6.63899062 14.7010217,8.17063222 15.3755359,9.76421522 C16.0359389,11.318381 16.5806302,12.9091484 17.0124321,14.5280711 L18.4376608,14.1479762 C17.9889254,12.4671122 17.4216562,10.8087723 16.7330309,9.18984961 Z M4.19666334,4.41473168 C3.75921692,6.10122675 3.19476994,7.75956665 2.50896685,9.3784893 C1.79494141,11.0677999 0.956737641,12.6867225 0,14.2324417 L1.25871678,15.0038936 C2.24932124,13.3934175 3.12139183,11.7069224 3.86646185,9.95003938 C4.58330952,8.26354431 5.16751215,6.5404475 5.62471421,4.78356449 L4.19666334,4.41473168 Z M14.3623535,28.2114869 C15.3670692,27.434404 16.2871178,26.5615935 17.1168548,25.607133 L16.002072,24.644226 C15.2372464,25.525483 14.3849314,26.3335366 13.4564161,27.0514936 C12.0537654,28.1382834 10.5043584,29.0082784 8.85052873,29.6276922 L9.36981996,31.0072959 C11.1619391,30.3287561 12.8439912,29.3911888 14.3623535,28.2114869 Z M14.3623535,34.0987343 C15.3670692,33.3216514 16.2871178,32.4460254 17.1168548,31.4887494 L16.002072,30.5314734 C15.2372464,31.4127304 14.3849314,32.2179685 13.4564161,32.9359255 C12.0537654,34.0255308 10.5043584,34.8898947 8.85052873,35.5121241 L9.36981996,36.8889123 C11.1619391,36.2160036 12.8439912,35.2756207 14.3623535,34.0987343 Z M4.79497714,29.0589577 L8.11392542,29.0589577 L8.11392542,27.5892575 L4.79497714,27.5892575 L4.79497714,24.644226 L3.31894828,24.644226 L3.31894828,27.5892575 L0,27.5892575 L0,29.0589577 L3.25968134,29.0589577 C2.90407974,31.9167081 1.85703058,34.6336826 0.1778008,37.007164 C0.118533867,37.0916295 0.0592669335,37.1732796 0,37.2549296 L1.19380537,38.122109 L1.38289511,37.8574503 C2.15336525,36.767845 2.79965705,35.6106673 3.31894828,34.4084412 L3.31894828,43.0351873 L4.79497714,43.0351873 L4.79497714,32.8683531 L7.10920978,36.7875536 L8.3792155,36.044257 L4.79497714,29.9655544 L4.79497714,29.0589577 Z M17.2523221,35.3713483 C16.2927622,36.6580398 15.1638683,37.8095865 13.8910403,38.7950177 C12.4883896,39.8846231 10.9333381,40.754618 9.27386397,41.3740319 C9.02832953,41.466944 8.77715063,41.5570405 8.52597172,41.6386905 L8.98317378,43.0351873 C9.25693056,42.9479063 9.52504288,42.8549942 9.7931552,42.75082 C11.5909188,42.0779113 13.2729709,41.1375284 14.7969777,39.9578265 C16.1742284,38.8879298 17.3962561,37.643471 18.4376608,36.2497898 L17.2523221,35.3713483 Z M94.8553159,140.778698 L96.3172336,140.778698 L96.3172336,132.920588 L94.8553159,132.920588 L94.8553159,140.778698 Z M85.3443842,136.268239 L85.3443842,134.328347 L86.7555017,134.328347 C87.3453488,134.328347 87.8025508,134.75349 87.8025508,135.299701 C87.8025508,135.831834 87.4610604,136.268239 86.7442127,136.268239 L85.3443842,136.268239 Z M83.8824665,132.909326 L83.8824665,140.778698 L85.3330953,140.778698 L85.3330953,137.684444 L85.8918978,137.684444 L87.9097958,140.778698 L89.6228924,140.778698 L87.5372608,137.599979 C88.7000215,137.338136 89.2672908,136.445616 89.2672908,135.299701 C89.2672908,133.920097 88.4685983,132.912142 86.8091241,132.912142 L83.8824665,132.909326 Z M76.5277223,137.509882 L74.4674908,137.509882 L75.503251,134.714073 L76.5277223,137.509882 Z M74.721492,132.920588 L71.6424336,140.778698 L73.1805517,140.778698 L73.8917549,138.965505 L77.1034582,138.965505 L77.8146614,140.778698 L79.3527795,140.778698 L76.2737212,132.920588 L74.721492,132.920588 Z M60.0994928,132.920588 L60.0994928,140.778698 L61.5614105,140.778698 L61.5614105,135.203973 L65.1625823,140.778698 L66.8502787,140.778698 L66.8502787,132.920588 L65.3855388,132.920588 L65.3855388,138.484051 L61.7871893,132.920588 L60.0994928,132.920588 Z M51.260253,134.249513 C52.7080595,134.249513 53.8679981,135.40669 53.8679981,136.848235 C53.8679981,138.292596 52.7080595,139.449774 51.260253,139.449774 C49.8124465,139.449774 48.6637969,138.292596 48.6637969,136.848235 C48.6637969,135.40669 49.8124465,134.249513 51.260253,134.249513 Z M51.260253,132.822045 C49.0335096,132.822045 47.1905902,134.595821 47.1905902,136.848235 C47.1905902,139.103465 49.0335096,140.880057 51.260253,140.880057 C53.4869964,140.880057 55.3299158,139.103465 55.3299158,136.848235 C55.3299158,134.595821 53.4869964,132.822045 51.260253,132.822045 Z M43.3015505,132.920588 L36.8724993,132.920588 L36.8724993,134.283299 L39.3560661,134.280483 L39.3560661,140.778698 L40.8179838,140.778698 L40.8179838,134.277668 L43.3015505,134.272037 L43.3015505,132.920588 Z M118.356066,117.91951 C118.356066,118.983776 117.529151,119.808723 116.484924,119.808723 C115.454809,119.808723 114.627894,118.983776 114.627894,117.91951 L114.627894,113.26546 L113.151865,113.26546 L113.151865,118.110965 C113.151865,119.727073 114.467026,121.224928 116.487747,121.224928 C118.514111,121.224928 119.829273,119.727073 119.829273,118.110965 L119.829273,113.26546 L118.356066,113.26546 L118.356066,117.91951 Z M106.787725,113.26546 L104.888361,116.584955 L102.988997,113.26546 L101.394434,113.26546 L104.151758,118.00116 L104.151758,121.120754 L105.613675,121.120754 L105.613675,117.989898 L108.379466,113.26546 L106.787725,113.26546 Z M94.8553159,121.120754 L96.3172336,121.120754 L96.3172336,113.26546 L94.8553159,113.26546 L94.8553159,121.120754 Z M88.9991785,117.3733 L87.5344385,117.3733 L87.5344385,119.572219 C87.2070593,119.718626 86.8486354,119.797461 86.4676337,119.797461 C85.0198272,119.797461 83.8711776,118.637467 83.8711776,117.195922 C83.8711776,115.748746 85.0198272,114.591568 86.4676337,114.591568 C87.0123251,114.591568 87.5429052,114.757684 87.9803516,115.056129 L88.9878895,114.053805 C88.3020864,113.490701 87.4243714,113.164101 86.4676337,113.164101 C84.2408904,113.164101 82.397971,114.940693 82.397971,117.195922 C82.397971,119.448336 84.2408904,121.222112 86.4676337,121.222112 C87.4243714,121.222112 88.2992642,120.88425 88.9991785,120.335224 L88.9991785,117.3733 Z M75.8080524,117.91951 C75.8080524,118.98096 74.9811376,119.805907 73.9369106,119.805907 C72.9039727,119.805907 72.0770578,118.98096 72.0770578,117.91951 L72.0770578,113.26546 L70.6038512,113.26546 L70.6038512,118.110965 C70.6038512,119.727073 71.9190127,121.222112 73.9369106,121.222112 C75.9660976,121.222112 77.281259,119.727073 77.281259,118.110965 L77.281259,113.26546 L75.8080524,113.26546 L75.8080524,117.91951 Z M62.5999929,117.767472 C63.1333953,117.947665 63.6667977,118.27145 63.6667977,118.882417 C63.6667977,119.380764 63.2124179,119.834062 62.5435482,119.836878 C62.0468349,119.84814 61.4344099,119.614452 60.8050515,118.972514 L59.9245142,120.01144 C60.7514291,120.825124 61.6912333,121.193957 62.5435482,121.213666 C63.9405545,121.233375 65.0892041,120.301438 65.0892041,118.882417 C65.0892041,117.570386 64.078844,116.83272 63.2801516,116.599032 L62.6451487,116.387869 C62.0073236,116.171074 61.6658332,115.957094 61.6658332,115.447486 C61.6658332,114.988556 62.0129681,114.583122 62.5379038,114.557782 C62.876572,114.538074 63.2999072,114.692927 63.7429981,115.092731 L64.6207131,114.107299 C63.9828881,113.473808 63.2349958,113.186625 62.5379038,113.164101 C61.2622536,113.135946 60.1587597,114.036911 60.1587597,115.500981 C60.1587597,116.714469 61.1606531,117.252233 61.9678123,117.5366 L62.5999929,117.767472 Z M51.260253,114.591568 C52.7080595,114.591568 53.8679981,115.748746 53.8679981,117.193107 C53.8679981,118.637467 52.7080595,119.794645 51.260253,119.794645 C49.8124465,119.794645 48.6637969,118.637467 48.6637969,117.193107 C48.6637969,115.748746 49.8124465,114.591568 51.260253,114.591568 Z M51.260253,113.164101 C49.0335096,113.164101 47.1905902,114.937877 47.1905902,117.193107 C47.1905902,119.448336 49.0335096,121.222112 51.260253,121.222112 C53.4869964,121.222112 55.3299158,119.448336 55.3299158,117.193107 C55.3299158,114.937877 53.4869964,113.164101 51.260253,113.164101 Z M41.1820521,113.26546 L38.345706,116.508936 L38.345706,113.26546 L36.8724993,113.26546 L36.8724993,121.120754 L38.345706,121.120754 L38.345706,118.443197 L39.223421,117.440872 L41.5799872,121.120754 L43.3015505,121.120754 L40.21967,116.306219 L42.8725708,113.26546 L41.1820521,113.26546 Z M119.992962,78.1475079 L119.163225,71.3902656 C119.101136,70.8919189 118.643934,70.5371637 118.144399,70.5962896 L37.781259,80.4421548 C37.2789012,80.5040962 36.9204773,80.9602101 36.9825665,81.4613722 L37.8151258,88.2129835 C37.877215,88.7141457 38.3315948,89.0717164 38.8339526,89.0069595 L119.197092,79.1639098 C119.69945,79.1047839 120.055052,78.6486701 119.992962,78.1475079 Z M83.5861319,8.45499951 L83.5861319,1.64989334 C83.5861319,1.14310017 83.1769078,0.737665625 82.6717277,0.737665625 L37.7869034,0.737665625 C37.2817234,0.737665625 36.8724993,1.14310017 36.8724993,1.64989334 L36.8724993,8.45499951 C36.8724993,8.95897717 37.2817234,9.36722723 37.7869034,9.36722723 L82.6717277,9.36722723 C83.1769078,9.36722723 83.5861319,8.95897717 83.5861319,8.45499951 Z M118.144399,51.4761092 L37.781259,41.6330595 C37.2789012,41.5739336 36.9204773,41.1150043 36.9825665,40.6166576 L37.8151258,33.8622308 C37.877215,33.3638842 38.3315948,33.0063134 38.8339526,33.0682548 L119.197092,42.9113045 C119.69945,42.9732459 120.055052,43.4293598 119.992962,43.9277064 L119.163225,50.6821332 C119.101136,51.1832954 118.643934,51.5408661 118.144399,51.4761092 Z" id="Fill-1"></path>
            </g>
        </g>
    </g>
</svg>